<svg width="285" height="236" viewBox="0 0 285 236" fill="none" xmlns="http://www.w3.org/2000/svg">
<path d="M0.860352 14.4004C0.860352 9.3803 0.860352 6.87025 1.83733 4.95282C2.6967 3.26621 4.06797 1.89495 5.75458 1.03557C7.67201 0.0585938 10.1821 0.0585938 15.2022 0.0585938H270.666C275.686 0.0585938 278.196 0.0585938 280.113 1.03557C281.8 1.89495 283.171 3.26621 284.031 4.95282C285.008 6.87025 285.008 9.3803 285.008 14.4004V221.46C285.008 226.481 285.008 228.991 284.031 230.908C283.171 232.595 281.8 233.966 280.113 234.825C278.196 235.802 275.686 235.802 270.666 235.802H15.2022C10.1821 235.802 7.67201 235.802 5.75458 234.825C4.06797 233.966 2.6967 232.595 1.83733 230.908C0.860352 228.991 0.860352 226.481 0.860352 221.46V14.4004Z" fill="white"/>
<path d="M32.1543 76V54.7607H35.947L43.138 68.9L50.2987 54.7607H54.0915V76H50.8752V60.3132L44.3821 72.9658H41.894L35.3705 60.3436V76H32.1543ZM62.0178 76.3641C60.7435 76.3641 59.6916 76.1517 58.8623 75.7269C58.0329 75.3021 57.416 74.7459 57.0114 74.0581C56.6068 73.3501 56.4046 72.5815 56.4046 71.7521C56.4046 70.2957 56.971 69.1427 58.1037 68.2932C59.2365 67.4436 60.8547 67.0188 62.9584 67.0188H66.9029V66.7457C66.9029 65.5725 66.5792 64.6926 65.9319 64.106C65.3049 63.5194 64.4856 63.2261 63.4742 63.2261C62.5842 63.2261 61.8054 63.4486 61.1379 63.8936C60.4906 64.3184 60.0962 64.9555 59.9546 65.8051H56.7383C56.8395 64.7128 57.2036 63.7823 57.8306 63.0137C58.4779 62.2248 59.2871 61.6281 60.258 61.2235C61.2492 60.7987 62.3314 60.5863 63.5046 60.5863C65.6083 60.5863 67.2366 61.1426 68.3896 62.2551C69.5426 63.3474 70.1191 64.8443 70.1191 66.7457V76H67.3277L67.0546 73.4209C66.6298 74.2503 66.0128 74.9481 65.2037 75.5145C64.3946 76.0809 63.3326 76.3641 62.0178 76.3641ZM62.655 73.7547C63.5248 73.7547 64.253 73.5524 64.8396 73.1479C65.4465 72.7231 65.9117 72.1668 66.2353 71.4791C66.5792 70.7913 66.7916 70.0328 66.8725 69.2034H63.2922C62.0178 69.2034 61.1076 69.4259 60.5614 69.8709C60.0355 70.3159 59.7725 70.8722 59.7725 71.5397C59.7725 72.2275 60.0254 72.7736 60.5311 73.1782C61.057 73.5625 61.765 73.7547 62.655 73.7547ZM72.5038 76V60.9504H75.3863L75.6594 63.8026C76.1853 62.8114 76.9135 62.0326 77.844 61.4662C78.7947 60.8796 79.9376 60.5863 81.2726 60.5863V63.9543H80.3927C79.5027 63.9543 78.7037 64.106 77.9957 64.4094C77.3079 64.6926 76.7517 65.1882 76.3269 65.8961C75.9223 66.5839 75.72 67.5447 75.72 68.7786V76H72.5038ZM82.6648 76V54.1538H85.881V67.1705L91.646 60.9504H95.4994L89.0973 67.7773L96.44 76H92.3742L85.881 68.2932V76H82.6648ZM103.119 76.3641C101.299 76.3641 99.8626 75.7977 98.8107 74.665C97.7791 73.5322 97.2633 71.8432 97.2633 69.5979V60.9504H100.48V69.2641C100.48 72.1769 101.673 73.6333 104.06 73.6333C105.253 73.6333 106.234 73.2085 107.003 72.359C107.772 71.5094 108.156 70.2957 108.156 68.7179V60.9504H111.372V76H108.52L108.277 73.3603C107.812 74.2907 107.124 75.0291 106.214 75.5752C105.324 76.1011 104.292 76.3641 103.119 76.3641ZM114.098 82.6752V60.9504H116.981L117.315 63.2867C117.8 62.5788 118.468 61.9517 119.317 61.4055C120.167 60.8594 121.259 60.5863 122.594 60.5863C124.05 60.5863 125.335 60.9302 126.447 61.6179C127.56 62.3057 128.43 63.2463 129.057 64.4397C129.704 65.6332 130.028 66.9885 130.028 68.5055C130.028 70.0226 129.704 71.3779 129.057 72.5714C128.43 73.7446 127.56 74.6751 126.447 75.3628C125.335 76.0303 124.04 76.3641 122.564 76.3641C121.39 76.3641 120.349 76.1315 119.438 75.6662C118.548 75.201 117.84 74.5436 117.315 73.694V82.6752H114.098ZM122.018 73.5726C123.393 73.5726 124.526 73.1074 125.416 72.1769C126.306 71.2262 126.751 69.9923 126.751 68.4752C126.751 67.484 126.549 66.6041 126.144 65.8355C125.739 65.0668 125.183 64.4701 124.475 64.0453C123.767 63.6003 122.948 63.3778 122.018 63.3778C120.642 63.3778 119.509 63.8531 118.619 64.8038C117.749 65.7545 117.315 66.9783 117.315 68.4752C117.315 69.9923 117.749 71.2262 118.619 72.1769C119.509 73.1074 120.642 73.5726 122.018 73.5726Z" fill="#292930"/>
<path d="M40.6433 145.553V156.705H39.1873V151.649H33.5073V156.705H32.0513V145.553H33.5073V150.449H39.1873V145.553H40.6433ZM49.5935 145.553V146.737H46.5535V156.705H45.0975V146.737H42.0415V145.553H49.5935ZM62.2977 145.633V156.705H60.8417V148.449L57.1617 156.705H56.1377L52.4417 148.433V156.705H50.9857V145.633H52.5537L56.6497 154.785L60.7457 145.633H62.2977ZM65.823 155.521H69.727V156.705H64.367V145.553H65.823V155.521ZM72.3772 154.689L70.5852 158.993H69.6092L70.7772 154.689H72.3772ZM76.9667 151.121C76.9667 150.033 77.212 149.057 77.7027 148.193C78.1934 147.318 78.86 146.636 79.7027 146.145C80.556 145.654 81.5 145.409 82.5347 145.409C83.7507 145.409 84.812 145.702 85.7187 146.289C86.6254 146.876 87.2867 147.708 87.7027 148.785H85.9587C85.6494 148.113 85.2014 147.596 84.6147 147.233C84.0387 146.87 83.3454 146.689 82.5347 146.689C81.756 146.689 81.0574 146.87 80.4387 147.233C79.82 147.596 79.3347 148.113 78.9827 148.785C78.6307 149.446 78.4547 150.225 78.4547 151.121C78.4547 152.006 78.6307 152.785 78.9827 153.457C79.3347 154.118 79.82 154.63 80.4387 154.993C81.0574 155.356 81.756 155.537 82.5347 155.537C83.3454 155.537 84.0387 155.361 84.6147 155.009C85.2014 154.646 85.6494 154.129 85.9587 153.457H87.7027C87.2867 154.524 86.6254 155.35 85.7187 155.937C84.812 156.513 83.7507 156.801 82.5347 156.801C81.5 156.801 80.556 156.561 79.7027 156.081C78.86 155.59 78.1934 154.913 77.7027 154.049C77.212 153.185 76.9667 152.209 76.9667 151.121ZM93.0061 156.817C92.2701 156.817 91.6088 156.689 91.0221 156.433C90.4461 156.166 89.9928 155.804 89.6621 155.345C89.3314 154.876 89.1608 154.337 89.1501 153.729H90.7021C90.7554 154.252 90.9688 154.694 91.3421 155.057C91.7261 155.409 92.2808 155.585 93.0061 155.585C93.6994 155.585 94.2434 155.414 94.6381 155.073C95.0434 154.721 95.2461 154.273 95.2461 153.729C95.2461 153.302 95.1288 152.956 94.8941 152.689C94.6594 152.422 94.3661 152.22 94.0141 152.081C93.6621 151.942 93.1874 151.793 92.5901 151.633C91.8541 151.441 91.2621 151.249 90.8141 151.057C90.3768 150.865 89.9981 150.566 89.6781 150.161C89.3688 149.745 89.2141 149.19 89.2141 148.497C89.2141 147.889 89.3688 147.35 89.6781 146.881C89.9874 146.412 90.4194 146.049 90.9741 145.793C91.5394 145.537 92.1848 145.409 92.9101 145.409C93.9554 145.409 94.8088 145.67 95.4701 146.193C96.1421 146.716 96.5208 147.409 96.6061 148.273H95.0061C94.9528 147.846 94.7288 147.473 94.3341 147.153C93.9394 146.822 93.4168 146.657 92.7661 146.657C92.1581 146.657 91.6621 146.817 91.2781 147.137C90.8941 147.446 90.7021 147.884 90.7021 148.449C90.7021 148.854 90.8141 149.185 91.0381 149.441C91.2728 149.697 91.5554 149.894 91.8861 150.033C92.2274 150.161 92.7021 150.31 93.3101 150.481C94.0461 150.684 94.6381 150.886 95.0861 151.089C95.5341 151.281 95.9181 151.585 96.2381 152.001C96.5581 152.406 96.7181 152.961 96.7181 153.665C96.7181 154.209 96.5741 154.721 96.2861 155.201C95.9981 155.681 95.5714 156.07 95.0061 156.369C94.4408 156.668 93.7741 156.817 93.0061 156.817ZM101.997 156.817C101.261 156.817 100.599 156.689 100.013 156.433C99.4367 156.166 98.9834 155.804 98.6527 155.345C98.322 154.876 98.1514 154.337 98.1407 153.729H99.6927C99.746 154.252 99.9594 154.694 100.333 155.057C100.717 155.409 101.271 155.585 101.997 155.585C102.69 155.585 103.234 155.414 103.629 155.073C104.034 154.721 104.237 154.273 104.237 153.729C104.237 153.302 104.119 152.956 103.885 152.689C103.65 152.422 103.357 152.22 103.005 152.081C102.653 151.942 102.178 151.793 101.581 151.633C100.845 151.441 100.253 151.249 99.8047 151.057C99.3674 150.865 98.9887 150.566 98.6687 150.161C98.3594 149.745 98.2047 149.19 98.2047 148.497C98.2047 147.889 98.3594 147.35 98.6687 146.881C98.978 146.412 99.41 146.049 99.9647 145.793C100.53 145.537 101.175 145.409 101.901 145.409C102.946 145.409 103.799 145.67 104.461 146.193C105.133 146.716 105.511 147.409 105.597 148.273H103.997C103.943 147.846 103.719 147.473 103.325 147.153C102.93 146.822 102.407 146.657 101.757 146.657C101.149 146.657 100.653 146.817 100.269 147.137C99.8847 147.446 99.6927 147.884 99.6927 148.449C99.6927 148.854 99.8047 149.185 100.029 149.441C100.263 149.697 100.546 149.894 100.877 150.033C101.218 150.161 101.693 150.31 102.301 150.481C103.037 150.684 103.629 150.886 104.077 151.089C104.525 151.281 104.909 151.585 105.229 152.001C105.549 152.406 105.709 152.961 105.709 153.665C105.709 154.209 105.565 154.721 105.277 155.201C104.989 155.681 104.562 156.07 103.997 156.369C103.431 156.668 102.765 156.817 101.997 156.817ZM108.955 154.689L107.163 158.993H106.187L107.355 154.689H108.955ZM117.625 156.817C116.889 156.817 116.228 156.689 115.641 156.433C115.065 156.166 114.612 155.804 114.281 155.345C113.95 154.876 113.78 154.337 113.769 153.729H115.321C115.374 154.252 115.588 154.694 115.961 155.057C116.345 155.409 116.9 155.585 117.625 155.585C118.318 155.585 118.862 155.414 119.257 155.073C119.662 154.721 119.865 154.273 119.865 153.729C119.865 153.302 119.748 152.956 119.513 152.689C119.278 152.422 118.985 152.22 118.633 152.081C118.281 151.942 117.806 151.793 117.209 151.633C116.473 151.441 115.881 151.249 115.433 151.057C114.996 150.865 114.617 150.566 114.297 150.161C113.988 149.745 113.833 149.19 113.833 148.497C113.833 147.889 113.988 147.35 114.297 146.881C114.606 146.412 115.038 146.049 115.593 145.793C116.158 145.537 116.804 145.409 117.529 145.409C118.574 145.409 119.428 145.67 120.089 146.193C120.761 146.716 121.14 147.409 121.225 148.273H119.625C119.572 147.846 119.348 147.473 118.953 147.153C118.558 146.822 118.036 146.657 117.385 146.657C116.777 146.657 116.281 146.817 115.897 147.137C115.513 147.446 115.321 147.884 115.321 148.449C115.321 148.854 115.433 149.185 115.657 149.441C115.892 149.697 116.174 149.894 116.505 150.033C116.846 150.161 117.321 150.31 117.929 150.481C118.665 150.684 119.257 150.886 119.705 151.089C120.153 151.281 120.537 151.585 120.857 152.001C121.177 152.406 121.337 152.961 121.337 153.665C121.337 154.209 121.193 154.721 120.905 155.201C120.617 155.681 120.19 156.07 119.625 156.369C119.06 156.668 118.393 156.817 117.625 156.817ZM129.671 154.225H124.807L123.911 156.705H122.375L126.407 145.617H128.087L132.103 156.705H130.567L129.671 154.225ZM129.255 153.041L127.239 147.409L125.223 153.041H129.255ZM136.997 156.817C136.261 156.817 135.599 156.689 135.013 156.433C134.437 156.166 133.983 155.804 133.653 155.345C133.322 154.876 133.151 154.337 133.141 153.729H134.693C134.746 154.252 134.959 154.694 135.333 155.057C135.717 155.409 136.271 155.585 136.997 155.585C137.69 155.585 138.234 155.414 138.629 155.073C139.034 154.721 139.237 154.273 139.237 153.729C139.237 153.302 139.119 152.956 138.885 152.689C138.65 152.422 138.357 152.22 138.005 152.081C137.653 151.942 137.178 151.793 136.581 151.633C135.845 151.441 135.253 151.249 134.805 151.057C134.367 150.865 133.989 150.566 133.669 150.161C133.359 149.745 133.205 149.19 133.205 148.497C133.205 147.889 133.359 147.35 133.669 146.881C133.978 146.412 134.41 146.049 134.965 145.793C135.53 145.537 136.175 145.409 136.901 145.409C137.946 145.409 138.799 145.67 139.461 146.193C140.133 146.716 140.511 147.409 140.597 148.273H138.997C138.943 147.846 138.719 147.473 138.325 147.153C137.93 146.822 137.407 146.657 136.757 146.657C136.149 146.657 135.653 146.817 135.269 147.137C134.885 147.446 134.693 147.884 134.693 148.449C134.693 148.854 134.805 149.185 135.029 149.441C135.263 149.697 135.546 149.894 135.877 150.033C136.218 150.161 136.693 150.31 137.301 150.481C138.037 150.684 138.629 150.886 139.077 151.089C139.525 151.281 139.909 151.585 140.229 152.001C140.549 152.406 140.709 152.961 140.709 153.665C140.709 154.209 140.565 154.721 140.277 155.201C139.989 155.681 139.562 156.07 138.997 156.369C138.431 156.668 137.765 156.817 136.997 156.817ZM145.987 156.817C145.251 156.817 144.59 156.689 144.003 156.433C143.427 156.166 142.974 155.804 142.643 155.345C142.313 154.876 142.142 154.337 142.131 153.729H143.683C143.737 154.252 143.95 154.694 144.323 155.057C144.707 155.409 145.262 155.585 145.987 155.585C146.681 155.585 147.225 155.414 147.619 155.073C148.025 154.721 148.227 154.273 148.227 153.729C148.227 153.302 148.11 152.956 147.875 152.689C147.641 152.422 147.347 152.22 146.995 152.081C146.643 151.942 146.169 151.793 145.571 151.633C144.835 151.441 144.243 151.249 143.795 151.057C143.358 150.865 142.979 150.566 142.659 150.161C142.35 149.745 142.195 149.19 142.195 148.497C142.195 147.889 142.35 147.35 142.659 146.881C142.969 146.412 143.401 146.049 143.955 145.793C144.521 145.537 145.166 145.409 145.891 145.409C146.937 145.409 147.79 145.67 148.451 146.193C149.123 146.716 149.502 147.409 149.587 148.273H147.987C147.934 147.846 147.71 147.473 147.315 147.153C146.921 146.822 146.398 146.657 145.747 146.657C145.139 146.657 144.643 146.817 144.259 147.137C143.875 147.446 143.683 147.884 143.683 148.449C143.683 148.854 143.795 149.185 144.019 149.441C144.254 149.697 144.537 149.894 144.867 150.033C145.209 150.161 145.683 150.31 146.291 150.481C147.027 150.684 147.619 150.886 148.067 151.089C148.515 151.281 148.899 151.585 149.219 152.001C149.539 152.406 149.699 152.961 149.699 153.665C149.699 154.209 149.555 154.721 149.267 155.201C148.979 155.681 148.553 156.07 147.987 156.369C147.422 156.668 146.755 156.817 145.987 156.817ZM152.946 154.689L151.154 158.993H150.178L151.346 154.689H152.946ZM161.615 156.817C160.879 156.817 160.218 156.689 159.631 156.433C159.055 156.166 158.602 155.804 158.271 155.345C157.941 154.876 157.77 154.337 157.759 153.729H159.311C159.365 154.252 159.578 154.694 159.951 155.057C160.335 155.409 160.89 155.585 161.615 155.585C162.309 155.585 162.853 155.414 163.247 155.073C163.653 154.721 163.855 154.273 163.855 153.729C163.855 153.302 163.738 152.956 163.503 152.689C163.269 152.422 162.975 152.22 162.623 152.081C162.271 151.942 161.797 151.793 161.199 151.633C160.463 151.441 159.871 151.249 159.423 151.057C158.986 150.865 158.607 150.566 158.287 150.161C157.978 149.745 157.823 149.19 157.823 148.497C157.823 147.889 157.978 147.35 158.287 146.881C158.597 146.412 159.029 146.049 159.583 145.793C160.149 145.537 160.794 145.409 161.519 145.409C162.565 145.409 163.418 145.67 164.079 146.193C164.751 146.716 165.13 147.409 165.215 148.273H163.615C163.562 147.846 163.338 147.473 162.943 147.153C162.549 146.822 162.026 146.657 161.375 146.657C160.767 146.657 160.271 146.817 159.887 147.137C159.503 147.446 159.311 147.884 159.311 148.449C159.311 148.854 159.423 149.185 159.647 149.441C159.882 149.697 160.165 149.894 160.495 150.033C160.837 150.161 161.311 150.31 161.919 150.481C162.655 150.684 163.247 150.886 163.695 151.089C164.143 151.281 164.527 151.585 164.847 152.001C165.167 152.406 165.327 152.961 165.327 153.665C165.327 154.209 165.183 154.721 164.895 155.201C164.607 155.681 164.181 156.07 163.615 156.369C163.05 156.668 162.383 156.817 161.615 156.817ZM175.07 151.985C175.07 152.262 175.054 152.556 175.022 152.865H168.014C168.067 153.729 168.361 154.406 168.894 154.897C169.438 155.377 170.094 155.617 170.862 155.617C171.491 155.617 172.014 155.473 172.43 155.185C172.857 154.886 173.155 154.492 173.326 154.001H174.894C174.659 154.844 174.19 155.532 173.486 156.065C172.782 156.588 171.907 156.849 170.862 156.849C170.03 156.849 169.283 156.662 168.622 156.289C167.971 155.916 167.459 155.388 167.086 154.705C166.713 154.012 166.526 153.212 166.526 152.305C166.526 151.398 166.707 150.604 167.07 149.921C167.433 149.238 167.939 148.716 168.59 148.353C169.251 147.98 170.009 147.793 170.862 147.793C171.694 147.793 172.43 147.974 173.07 148.337C173.71 148.7 174.201 149.201 174.542 149.841C174.894 150.47 175.07 151.185 175.07 151.985ZM173.566 151.681C173.566 151.126 173.443 150.652 173.198 150.257C172.953 149.852 172.617 149.548 172.19 149.345C171.774 149.132 171.31 149.025 170.798 149.025C170.062 149.025 169.433 149.26 168.91 149.729C168.398 150.198 168.105 150.849 168.03 151.681H173.566ZM187.136 147.777C187.819 147.777 188.427 147.921 188.96 148.209C189.493 148.486 189.915 148.908 190.224 149.473C190.533 150.038 190.688 150.726 190.688 151.537V156.705H189.248V151.745C189.248 150.87 189.029 150.204 188.592 149.745C188.165 149.276 187.584 149.041 186.848 149.041C186.091 149.041 185.488 149.286 185.04 149.777C184.592 150.257 184.368 150.956 184.368 151.873V156.705H182.928V151.745C182.928 150.87 182.709 150.204 182.272 149.745C181.845 149.276 181.264 149.041 180.528 149.041C179.771 149.041 179.168 149.286 178.72 149.777C178.272 150.257 178.048 150.956 178.048 151.873V156.705H176.592V147.937H178.048V149.201C178.336 148.742 178.72 148.39 179.2 148.145C179.691 147.9 180.229 147.777 180.816 147.777C181.552 147.777 182.203 147.942 182.768 148.273C183.333 148.604 183.755 149.089 184.032 149.729C184.277 149.11 184.683 148.63 185.248 148.289C185.813 147.948 186.443 147.777 187.136 147.777ZM192.132 152.289C192.132 151.393 192.314 150.609 192.676 149.937C193.039 149.254 193.535 148.726 194.164 148.353C194.804 147.98 195.514 147.793 196.292 147.793C197.06 147.793 197.727 147.958 198.292 148.289C198.858 148.62 199.279 149.036 199.556 149.537V147.937H201.028V156.705H199.556V155.073C199.268 155.585 198.836 156.012 198.26 156.353C197.695 156.684 197.034 156.849 196.276 156.849C195.498 156.849 194.794 156.657 194.164 156.273C193.535 155.889 193.039 155.35 192.676 154.657C192.314 153.964 192.132 153.174 192.132 152.289ZM199.556 152.305C199.556 151.644 199.423 151.068 199.156 150.577C198.89 150.086 198.527 149.713 198.068 149.457C197.62 149.19 197.124 149.057 196.58 149.057C196.036 149.057 195.54 149.185 195.092 149.441C194.644 149.697 194.287 150.07 194.02 150.561C193.754 151.052 193.62 151.628 193.62 152.289C193.62 152.961 193.754 153.548 194.02 154.049C194.287 154.54 194.644 154.918 195.092 155.185C195.54 155.441 196.036 155.569 196.58 155.569C197.124 155.569 197.62 155.441 198.068 155.185C198.527 154.918 198.89 154.54 199.156 154.049C199.423 153.548 199.556 152.966 199.556 152.305ZM207.361 147.777C208.428 147.777 209.292 148.102 209.953 148.753C210.614 149.393 210.945 150.321 210.945 151.537V156.705H209.505V151.745C209.505 150.87 209.286 150.204 208.849 149.745C208.412 149.276 207.814 149.041 207.057 149.041C206.289 149.041 205.676 149.281 205.217 149.761C204.769 150.241 204.545 150.94 204.545 151.857V156.705H203.089V147.937H204.545V149.185C204.833 148.737 205.222 148.39 205.713 148.145C206.214 147.9 206.764 147.777 207.361 147.777ZM214.699 149.137V154.305C214.699 154.732 214.79 155.036 214.971 155.217C215.153 155.388 215.467 155.473 215.915 155.473H216.987V156.705H215.675C214.865 156.705 214.257 156.518 213.851 156.145C213.446 155.772 213.243 155.158 213.243 154.305V149.137H212.107V147.937H213.243V145.729H214.699V147.937H216.987V149.137H214.699ZM219.103 146.513C218.826 146.513 218.591 146.417 218.399 146.225C218.207 146.033 218.111 145.798 218.111 145.521C218.111 145.244 218.207 145.009 218.399 144.817C218.591 144.625 218.826 144.529 219.103 144.529C219.37 144.529 219.594 144.625 219.775 144.817C219.967 145.009 220.063 145.244 220.063 145.521C220.063 145.798 219.967 146.033 219.775 146.225C219.594 146.417 219.37 146.513 219.103 146.513ZM219.807 147.937V156.705H218.351V147.937H219.807ZM221.345 152.305C221.345 151.398 221.526 150.609 221.889 149.937C222.251 149.254 222.753 148.726 223.393 148.353C224.043 147.98 224.785 147.793 225.617 147.793C226.694 147.793 227.579 148.054 228.273 148.577C228.977 149.1 229.441 149.825 229.665 150.753H228.097C227.947 150.22 227.654 149.798 227.217 149.489C226.79 149.18 226.257 149.025 225.617 149.025C224.785 149.025 224.113 149.313 223.601 149.889C223.089 150.454 222.833 151.26 222.833 152.305C222.833 153.361 223.089 154.177 223.601 154.753C224.113 155.329 224.785 155.617 225.617 155.617C226.257 155.617 226.79 155.468 227.217 155.169C227.643 154.87 227.937 154.444 228.097 153.889H229.665C229.43 154.785 228.961 155.505 228.257 156.049C227.553 156.582 226.673 156.849 225.617 156.849C224.785 156.849 224.043 156.662 223.393 156.289C222.753 155.916 222.251 155.388 221.889 154.705C221.526 154.022 221.345 153.222 221.345 152.305ZM232.712 154.689L230.92 158.993H229.944L231.112 154.689H232.712ZM46.0673 167.553L42.8353 178.705H41.2033L38.6113 169.729L35.9233 178.705L34.3073 178.721L31.1873 167.553H32.7393L35.1713 177.009L37.8593 167.553H39.4913L42.0513 176.977L44.4993 167.553H46.0673ZM46.9887 170.049C47.0634 169.068 47.442 168.3 48.1247 167.745C48.8074 167.19 49.6927 166.913 50.7807 166.913C51.506 166.913 52.13 167.046 52.6527 167.313C53.186 167.569 53.586 167.921 53.8527 168.369C54.13 168.817 54.2687 169.324 54.2687 169.889C54.2687 170.55 54.0767 171.121 53.6927 171.601C53.3194 172.081 52.8287 172.39 52.2207 172.529V172.609C52.914 172.78 53.4634 173.116 53.8687 173.617C54.274 174.118 54.4767 174.774 54.4767 175.585C54.4767 176.193 54.338 176.742 54.0607 177.233C53.7834 177.713 53.3674 178.092 52.8127 178.369C52.258 178.646 51.5914 178.785 50.8127 178.785C49.682 178.785 48.754 178.492 48.0287 177.905C47.3034 177.308 46.898 176.465 46.8127 175.377H48.2207C48.2954 176.017 48.5567 176.54 49.0047 176.945C49.4527 177.35 50.05 177.553 50.7967 177.553C51.5434 177.553 52.1087 177.361 52.4927 176.977C52.8874 176.582 53.0847 176.076 53.0847 175.457C53.0847 174.657 52.818 174.081 52.2847 173.729C51.7514 173.377 50.946 173.201 49.8687 173.201H49.5007V171.985H49.8847C50.866 171.974 51.6074 171.814 52.1087 171.505C52.61 171.185 52.8607 170.694 52.8607 170.033C52.8607 169.468 52.674 169.014 52.3007 168.673C51.938 168.332 51.4154 168.161 50.7327 168.161C50.0714 168.161 49.538 168.332 49.1327 168.673C48.7274 169.014 48.4874 169.473 48.4127 170.049H46.9887ZM55.7386 173.121C55.7386 172.033 55.9839 171.057 56.4746 170.193C56.9653 169.318 57.6319 168.636 58.4746 168.145C59.3279 167.654 60.2719 167.409 61.3066 167.409C62.5226 167.409 63.5839 167.702 64.4906 168.289C65.3973 168.876 66.0586 169.708 66.4746 170.785H64.7306C64.4213 170.113 63.9733 169.596 63.3866 169.233C62.8106 168.87 62.1173 168.689 61.3066 168.689C60.5279 168.689 59.8293 168.87 59.2106 169.233C58.5919 169.596 58.1066 170.113 57.7546 170.785C57.4026 171.446 57.2266 172.225 57.2266 173.121C57.2266 174.006 57.4026 174.785 57.7546 175.457C58.1066 176.118 58.5919 176.63 59.2106 176.993C59.8293 177.356 60.5279 177.537 61.3066 177.537C62.1173 177.537 62.8106 177.361 63.3866 177.009C63.9733 176.646 64.4213 176.129 64.7306 175.457H66.4746C66.0586 176.524 65.3973 177.35 64.4906 177.937C63.5839 178.513 62.5226 178.801 61.3066 178.801C60.2719 178.801 59.3279 178.561 58.4746 178.081C57.6319 177.59 56.9653 176.913 56.4746 176.049C55.9839 175.185 55.7386 174.209 55.7386 173.121ZM81.3236 167.553L77.1156 178.705H75.4356L71.2276 167.553H72.7796L76.2836 177.169L79.7876 167.553H81.3236ZM81.9761 174.289C81.9761 173.393 82.1574 172.609 82.5201 171.937C82.8828 171.254 83.3788 170.726 84.0081 170.353C84.6481 169.98 85.3574 169.793 86.1361 169.793C86.9041 169.793 87.5708 169.958 88.1361 170.289C88.7014 170.62 89.1228 171.036 89.4001 171.537V169.937H90.8721V178.705H89.4001V177.073C89.1121 177.585 88.6801 178.012 88.1041 178.353C87.5388 178.684 86.8774 178.849 86.1201 178.849C85.3414 178.849 84.6374 178.657 84.0081 178.273C83.3788 177.889 82.8828 177.35 82.5201 176.657C82.1574 175.964 81.9761 175.174 81.9761 174.289ZM89.4001 174.305C89.4001 173.644 89.2668 173.068 89.0001 172.577C88.7334 172.086 88.3708 171.713 87.9121 171.457C87.4641 171.19 86.9681 171.057 86.4241 171.057C85.8801 171.057 85.3841 171.185 84.9361 171.441C84.4881 171.697 84.1308 172.07 83.8641 172.561C83.5974 173.052 83.4641 173.628 83.4641 174.289C83.4641 174.961 83.5974 175.548 83.8641 176.049C84.1308 176.54 84.4881 176.918 84.9361 177.185C85.3841 177.441 85.8801 177.569 86.4241 177.569C86.9681 177.569 87.4641 177.441 87.9121 177.185C88.3708 176.918 88.7334 176.54 89.0001 176.049C89.2668 175.548 89.4001 174.966 89.4001 174.305ZM94.3886 166.865V178.705H92.9326V166.865H94.3886ZM97.2221 168.513C96.9447 168.513 96.7101 168.417 96.5181 168.225C96.3261 168.033 96.2301 167.798 96.2301 167.521C96.2301 167.244 96.3261 167.009 96.5181 166.817C96.7101 166.625 96.9447 166.529 97.2221 166.529C97.4887 166.529 97.7127 166.625 97.8941 166.817C98.0861 167.009 98.1821 167.244 98.1821 167.521C98.1821 167.798 98.0861 168.033 97.8941 168.225C97.7127 168.417 97.4887 168.513 97.2221 168.513ZM97.9261 169.937V178.705H96.4701V169.937H97.9261ZM99.4636 174.289C99.4636 173.393 99.6449 172.609 100.008 171.937C100.37 171.254 100.866 170.726 101.496 170.353C102.136 169.98 102.85 169.793 103.64 169.793C104.322 169.793 104.957 169.953 105.544 170.273C106.13 170.582 106.578 170.993 106.888 171.505V166.865H108.36V178.705H106.888V177.057C106.6 177.58 106.173 178.012 105.608 178.353C105.042 178.684 104.381 178.849 103.624 178.849C102.845 178.849 102.136 178.657 101.496 178.273C100.866 177.889 100.37 177.35 100.008 176.657C99.6449 175.964 99.4636 175.174 99.4636 174.289ZM106.888 174.305C106.888 173.644 106.754 173.068 106.488 172.577C106.221 172.086 105.858 171.713 105.4 171.457C104.952 171.19 104.456 171.057 103.912 171.057C103.368 171.057 102.872 171.185 102.424 171.441C101.976 171.697 101.618 172.07 101.352 172.561C101.085 173.052 100.952 173.628 100.952 174.289C100.952 174.961 101.085 175.548 101.352 176.049C101.618 176.54 101.976 176.918 102.424 177.185C102.872 177.441 103.368 177.569 103.912 177.569C104.456 177.569 104.952 177.441 105.4 177.185C105.858 176.918 106.221 176.54 106.488 176.049C106.754 175.548 106.888 174.966 106.888 174.305ZM110.884 178.801C110.607 178.801 110.372 178.705 110.18 178.513C109.988 178.321 109.892 178.086 109.892 177.809C109.892 177.532 109.988 177.297 110.18 177.105C110.372 176.913 110.607 176.817 110.884 176.817C111.151 176.817 111.375 176.913 111.556 177.105C111.748 177.297 111.844 177.532 111.844 177.809C111.844 178.086 111.748 178.321 111.556 178.513C111.375 178.705 111.151 178.801 110.884 178.801Z" fill="#737373"/>
</svg>
