<svg width="1672" height="1730" viewBox="0 0 1672 1730" fill="none" xmlns="http://www.w3.org/2000/svg">
<path d="M805.503 1729C1281.85 1729 1668.01 1342.17 1668.01 865C1668.01 387.826 1281.85 1 805.503 1C329.156 1 -57 387.826 -57 865C-57 1342.17 329.156 1729 805.503 1729Z" stroke="url(#paint0_linear_231_3225)" stroke-opacity="0.2" stroke-width="0.61" stroke-miterlimit="10" stroke-linecap="square"/>
<path d="M805.502 1176.04C976.987 1176.04 1116 1036.78 1116 865C1116 693.217 976.987 553.96 805.502 553.96C634.017 553.96 495.001 693.217 495.001 865C495.001 1036.78 634.017 1176.04 805.502 1176.04Z" stroke="url(#paint1_linear_231_3225)" stroke-opacity="0.2" stroke-width="0.61" stroke-miterlimit="10" stroke-linecap="square"/>
<path d="M805.502 1417.96C1110.36 1417.96 1357.5 1170.39 1357.5 865C1357.5 559.609 1110.36 312.04 805.502 312.04C500.64 312.04 253.5 559.609 253.5 865C253.5 1170.39 500.64 1417.96 805.502 1417.96Z" stroke="url(#paint2_linear_231_3225)" stroke-opacity="0.2" stroke-width="0.61" stroke-miterlimit="10" stroke-linecap="square"/>
<path d="M903 508L903 1420" stroke="#939598" stroke-opacity="0.2" stroke-width="0.61" stroke-miterlimit="10" stroke-linecap="square"/>
<path d="M1241 508L1241 1420" stroke="#939598" stroke-opacity="0.2" stroke-width="0.61" stroke-miterlimit="10" stroke-linecap="square"/>
<path d="M1126 508L1126 1420" stroke="#939598" stroke-opacity="0.2" stroke-width="0.61" stroke-miterlimit="10" stroke-linecap="square"/>
<path d="M1670 1206H-57" stroke="#939598" stroke-opacity="0.2" stroke-width="0.61" stroke-miterlimit="10" stroke-linecap="square"/>
<path d="M1669.97 1339.38L-55.0029 1339.38" stroke="#939598" stroke-opacity="0.2" stroke-width="0.61" stroke-miterlimit="10" stroke-linecap="square"/>
<path d="M1669.97 894.385L-55.0029 894.385" stroke="#939598" stroke-opacity="0.2" stroke-width="0.61" stroke-miterlimit="10" stroke-linecap="square"/>
<path d="M1670 932H-57" stroke="#939598" stroke-opacity="0.2" stroke-width="0.61" stroke-miterlimit="10" stroke-linecap="square"/>
<path d="M1670 795H-57" stroke="#939598" stroke-opacity="0.2" stroke-width="0.61" stroke-miterlimit="10" stroke-linecap="square"/>
<path d="M1671 757H-57" stroke="#939598" stroke-opacity="0.2" stroke-width="0.61" stroke-miterlimit="10" stroke-linecap="square"/>
<path d="M145 508L145 1420" stroke="#939598" stroke-opacity="0.2" stroke-width="0.61" stroke-miterlimit="10" stroke-linecap="square"/>
<path d="M15 508L15 1420" stroke="#939598" stroke-opacity="0.2" stroke-width="0.61" stroke-miterlimit="10" stroke-linecap="square"/>
<path d="M582 508L582 1420" stroke="#939598" stroke-opacity="0.2" stroke-width="0.61" stroke-miterlimit="10" stroke-linecap="square"/>
<path d="M376 508L376 1420" stroke="#939598" stroke-opacity="0.2" stroke-width="0.61" stroke-miterlimit="10" stroke-linecap="square"/>
<path d="M964 508L964 1420" stroke="#939598" stroke-opacity="0.2" stroke-width="0.61" stroke-miterlimit="10" stroke-linecap="square"/>
<path d="M1670 727H-57" stroke="#939598" stroke-opacity="0.2" stroke-width="0.61" stroke-miterlimit="10" stroke-linecap="square"/>
<path d="M1670 1003H-57" stroke="#939598" stroke-opacity="0.2" stroke-width="0.61" stroke-miterlimit="10" stroke-linecap="square"/>
<path d="M-57 864H1670" stroke="#939598" stroke-opacity="0.2" stroke-width="0.61" stroke-miterlimit="10" stroke-linecap="square"/>
<path d="M224 508L224 1420" stroke="url(#paint3_linear_231_3225)" stroke-opacity="0.2" stroke-width="0.61" stroke-miterlimit="10" stroke-linecap="square"/>
<path d="M714 508L714 1420" stroke="#939598" stroke-opacity="0.2" stroke-width="0.61" stroke-miterlimit="10" stroke-linecap="square"/>
<path d="M945 508L945 1420" stroke="url(#paint4_linear_231_3225)" stroke-opacity="0.3" stroke-width="0.61" stroke-miterlimit="10" stroke-linecap="square"/>
<path d="M1099 508L1099 1420" stroke="url(#paint5_linear_231_3225)" stroke-opacity="0.2" stroke-width="0.61" stroke-miterlimit="10" stroke-linecap="square"/>
<defs>
<linearGradient id="paint0_linear_231_3225" x1="1344.3" y1="1389.56" x2="873.866" y2="200.378" gradientUnits="userSpaceOnUse">
<stop stop-color="#939598"/>
<stop offset="1" stop-color="#939598" stop-opacity="0"/>
</linearGradient>
<linearGradient id="paint1_linear_231_3225" x1="996.214" y1="1176" x2="893.535" y2="554.781" gradientUnits="userSpaceOnUse">
<stop stop-color="#939598"/>
<stop offset="1" stop-color="#939598" stop-opacity="0"/>
</linearGradient>
<linearGradient id="paint2_linear_231_3225" x1="749.599" y1="322.671" x2="1127.47" y2="1042.13" gradientUnits="userSpaceOnUse">
<stop stop-color="#939598" stop-opacity="0"/>
<stop offset="1" stop-color="#939598"/>
</linearGradient>
<linearGradient id="paint3_linear_231_3225" x1="224.5" y1="508" x2="224.5" y2="1420" gradientUnits="userSpaceOnUse">
<stop stop-color="#939598"/>
<stop offset="0.161458" stop-color="#939598" stop-opacity="0"/>
<stop offset="0.416667" stop-color="#939598" stop-opacity="0"/>
<stop offset="1" stop-color="#939598"/>
</linearGradient>
<linearGradient id="paint4_linear_231_3225" x1="945.5" y1="508" x2="945.5" y2="1420" gradientUnits="userSpaceOnUse">
<stop stop-color="#939598"/>
<stop offset="0.140625" stop-color="#939598" stop-opacity="0"/>
<stop offset="0.552083" stop-color="#939598" stop-opacity="0"/>
<stop offset="1" stop-color="#939598"/>
</linearGradient>
<linearGradient id="paint5_linear_231_3225" x1="1099.5" y1="508" x2="1099.5" y2="1420" gradientUnits="userSpaceOnUse">
<stop stop-color="#939598"/>
<stop offset="0.161458" stop-color="#939598" stop-opacity="0"/>
<stop offset="0.416667" stop-color="#939598" stop-opacity="0"/>
<stop offset="1" stop-color="#939598"/>
</linearGradient>
</defs>
</svg>
